HIERARCHY
ROOT Hips
{
	OFFSET 0.000000 0.000000 0.000000 
	CHANNELS 6 Xposition Yposition Zposition Yrotation Zrotation Xrotation 
	JOINT Lumbar
	{
		OFFSET 0.000000 0.000000 0.000000 
		CHANNELS 3 Zrotation Xrotation Yrotation
		JOINT Neck
		{
			OFFSET 0.000000 0.445665 0.000000 
			CHANNELS 3 Zrotation Xrotation Yrotation
			End Site
			{
				OFFSET 0.000000 0.227535 0.000000 
			}
		}
		JOINT RightShoulder
		{
			OFFSET 0.019635 0.377685 0.194865 
			CHANNELS 3 Zrotation Xrotation Yrotation
			JOINT RightElbow
			{
				OFFSET 0.000000 -0.243375 0.000000 
				CHANNELS 2 Zrotation Yrotation
				JOINT RightWrist
				{
					OFFSET 0.000000 -0.264825 0.000000 
					CHANNELS 2 Zrotation Xrotation
					End Site
					{
						OFFSET 0.006600 -0.176220 0.000990 
					}
				}
			}
		}
		JOINT LeftShoulder
		{
			OFFSET 0.019635 0.377685 -0.194865 
			CHANNELS 3 Zrotation Xrotation Yrotation
			JOINT LeftElbow
			{
				OFFSET 0.000000 -0.243375 0.000000 
				CHANNELS 2 Zrotation Yrotation
				JOINT LeftWrist
				{
					OFFSET 0.000000 -0.264825 0.000000 
					CHANNELS 2 Zrotation Xrotation
					End Site
					{
						OFFSET 0.006600 -0.176220 -0.000990 
					}
				}
			}
		}
	}
	JOINT RightHip
	{
		OFFSET 0.052140 -0.069960 0.075570 
		CHANNELS 3 Zrotation Xrotation Yrotation
		JOINT RightKnee
		{
			OFFSET 0.000000 -0.402270 0.000000 
			CHANNELS 1 Zrotation
			JOINT RightAnkle
			{
				OFFSET 0.000000 -0.404085 0.000000 
				CHANNELS 3 Zrotation Xrotation Yrotation
				End Site
				{
					OFFSET 0.204105 -0.089430 0.008415 
				}
			}
		}
	}
	JOINT LeftHip
	{
		OFFSET 0.052140 -0.069960 -0.075570 
		CHANNELS 3 Zrotation Xrotation Yrotation
		JOINT LeftKnee
		{
			OFFSET 0.000000 -0.402270 0.000000 
			CHANNELS 1 Zrotation
			JOINT LeftAnkle
			{
				OFFSET 0.000000 -0.404085 0.000000 
				CHANNELS 3 Zrotation Xrotation Yrotation
				End Site
				{
					OFFSET 0.204105 -0.089430 -0.008415 
				}
			}
		}
	}
}
MOTION
Frames: 11
Frame Time: 0.02
0.59102 -0.39157 0.02705 -181.54135 -9.55603 -2.75018 12.15034 5.48191 -4.11439 -8.83887 -3.67266 -2.11908 24.513 -29.14213 37.27209 85.69367 80.30297 8.1599 -4.00192 39.66541 23.2627 -38.61377 83.93245 -82.04258 3.03792 2.29656 96.49068 -13.37637 -4.07147 -96.18678 -7.79334 -2.45835 -3.49009 98.95128 12.41734 -1.27957 -95.55496 -8.95334 1.37181 3.01482
0.591 -0.39161 0.02694 -181.54367 -9.5469 -2.73452 12.07775 5.46068 -4.18087 -9.00028 -3.62521 -2.11908 24.53099 -29.17463 37.35089 85.67313 80.27676 8.00833 -4.02875 38.87572 23.38272 -38.84012 83.42989 -82.11447 3.00545 2.30167 96.48924 -13.37106 -4.05777 -96.20442 -7.7887 -2.4556 -3.4889 98.937 12.43276 -1.2618 -95.56427 -8.94903 1.37302 3.0153
0.59098 -0.39163 0.0268 -181.53742 -9.51892 -2.71656 11.98634 5.44055 -4.22914 -9.12254 -3.58592 -2.11909 24.55287 -29.21431 37.40127 85.63261 80.25512 7.86266 -4.01737 38.36078 23.604 -39.18252 82.91017 -82.19939 2.93133 2.32194 96.46613 -13.33856 -4.01363 -96.22189 -7.78756 -2.45703 -3.48935 98.899 12.45729 -1.23052 -95.57065 -8.94628 1.37313 3.01535
0.59096 -0.39166 0.02668 -181.53512 -9.50142 -2.69976 11.90562 5.42071 -4.28559 -9.25759 -3.54586 -2.11909 24.57911 -29.24902 37.46786 85.59783 80.23051 7.71445 -4.02643 37.74321 23.77744 -39.47216 82.39251 -82.27517 2.87923 2.33617 96.45482 -13.31828 -3.98306 -96.23898 -7.78488 -2.45661 -3.4891 98.87381 12.47685 -1.20572 -95.5782 -8.94272 1.37382 3.01562
0.59095 -0.3917 0.02654 -181.53273 -9.47683 -2.68236 11.81642 5.39748 -4.34171 -9.4126 -3.49303 -2.11909 24.57832 -29.29271 37.52026 85.57889 80.20819 7.56263 -4.02426 37.03315 23.96397 -39.76464 81.9048 -82.3643 2.8122 2.34769 96.43634 -13.29918 -3.95423 -96.25792 -7.78191 -2.4559 -3.48864 98.84105 12.49982 -1.17959 -95.58631 -8.93962 1.37422 3.0158
0.59092 -0.39172 0.02644 -181.52851 -9.46223 -2.66573 11.74031 5.38157 -4.39445 -9.51688 -3.4691 -2.11909 24.6357 -29.31834 37.59614 85.52123 80.18276 7.4212 -4.03592 36.58272 24.14444 -40.0766 81.34788 -82.42865 2.76676 2.36809 96.42731 -13.27104 -3.9145 -96.27294 -7.78039 -2.45681 -3.48901 98.81814 12.51792 -1.15305 -95.59258 -8.93595 1.37495 3.01606
0.59088 -0.3917 0.02642 -181.52058 -9.47878 -2.65164 11.70374 5.38594 -4.44243 -9.49445 -3.52041 -2.11909 24.84668 -29.29654 37.73675 85.36512 80.14762 7.30325 -4.09274 36.75474 24.29253 -40.42732 80.60991 -82.42349 2.79551 2.4098 96.44871 -13.22326 -3.8498 -96.27771 -7.78203 -2.46139 -3.49133 98.8271 12.52 -1.12789 -95.59492 -8.92999 1.3769 3.01664
0.59083 -0.39168 0.02643 -181.51123 -9.50601 -2.63845 11.68113 5.39761 -4.48773 -9.42188 -3.60109 -2.11909 25.11727 -29.25511 37.90309 85.16972 80.10942 7.1967 -4.16482 37.18335 24.42835 -40.79073 79.80056 -82.39271 2.84702 2.45975 96.48032 -13.16747 -3.7755 -96.27845 -7.78503 -2.46743 -3.49442 98.84681 12.51695 -1.10291 -95.59545 -8.92345 1.3792 3.01731
0.59079 -0.39165 0.02642 -181.503 -9.52896 -2.62495 11.65282 5.40575 -4.53427 -9.36995 -3.66994 -2.11909 25.36467 -29.21999 38.06243 84.98997 80.0728 7.08764 -4.23141 37.51145 24.56359 -41.13959 79.01995 -82.37222 2.88544 2.50543 96.50782 -13.11611 -3.70699 -96.28067 -7.78743 -2.47271 -3.49711 98.86226 12.51648 -1.07833 -95.5965 -8.91737 1.38129 3.01794
0.59074 -0.39163 0.02642 -181.49248 -9.5491 -2.61092 11.62112 5.41478 -4.58002 -9.3255 -3.7324 -2.1191 25.59581 -29.19705 38.20163 84.81948 80.03541 6.96712 -4.29125 37.78017 24.72985 -41.53039 78.25653 -82.35747 2.93358 2.55371 96.53266 -13.06048 -3.6314 -96.28435 -7.78985 -2.47857 -3.50008 98.87447 12.51523 -1.05126 -95.59867 -8.91052 1.38358 3.01858
0.5907 -0.39161 0.02642 -181.48648 -9.57756 -2.5983 11.60008 5.42373 -4.62706 -9.25429 -3.81536 -2.1191 25.87482 -29.14289 38.38846 84.61987 79.99899 6.87355 -4.36844 38.23124 24.82547 -41.83434 77.43796 -82.32502 2.96791 2.59851 96.56536 -13.0122 -3.5687 -96.28407 -7.7925 -2.48349 -3.50261 98.896 12.51432 -1.0296 -95.59821 -8.9051 1.38555 3.0192
